<?xml version="1.0" encoding="utf-8"?>
<svg version="1.1" xmlns:xlink="http://www.w3.org/1999/xlink" width="50px" height="37px" xmlns="http://www.w3.org/2000/svg">
  <g transform="matrix(1 0 0 1 -702 -479 )">
    <path d="M 3.57142857142857 18.5  C 6.67782738095238 23.235119047619  10.649181547619 26.6763392857143  15.4854910714286 28.8236607142857  L 17.6618303571429 24.9419642857143  C 16.0435267857143 23.7857142857143  14.7786458333333 22.3266369047619  13.8671875 20.5647321428571  C 12.9557291666667 18.8028273809524  12.5 16.9399801587302  12.5 14.9761904761905  C 12.5 12.7554563492063  13.0673363095238 10.6907242063492  14.2020089285714 8.78199404761905  C 9.94233630952381 10.9293154761905  6.39880952380952 14.1686507936508  3.57142857142857 18.5  Z M 25.9486607142857 8.86458333333333  C 26.2090773809524 8.60763888888888  26.3392857142857 8.29563492063492  26.3392857142857 7.92857142857143  C 26.3392857142857 7.56150793650793  26.2090773809524 7.24950396825397  25.9486607142857 6.99255952380952  C 25.6882440476191 6.73561507936508  25.3720238095238 6.60714285714286  25 6.60714285714286  C 22.6748511904762 6.60714285714286  20.6798735119048 7.42844742063492  19.0150669642857 9.07105654761905  C 17.3502604166667 10.7136656746032  16.5178571428571 12.6820436507937  16.5178571428571 14.9761904761905  C 16.5178571428571 15.343253968254  16.6480654761905 15.6552579365079  16.9084821428571 15.9122023809524  C 17.1688988095238 16.1691468253968  17.4851190476191 16.297619047619  17.8571428571429 16.297619047619  C 18.2291666666667 16.297619047619  18.5453869047619 16.1691468253968  18.8058035714286 15.9122023809524  C 19.0662202380952 15.6552579365079  19.1964285714286 15.343253968254  19.1964285714286 14.9761904761905  C 19.1964285714286 13.3978174603175  19.7637648809524 12.0488591269841  20.8984375 10.9293154761905  C 22.0331101190476 9.80977182539682  23.4002976190476 9.25  25 9.25  C 25.3720238095238 9.25  25.6882440476191 9.12152777777778  25.9486607142857 8.86458333333333  Z M 36.0212053571429 1.92708333333333  C 36.3188244047619 2.11061507936508  36.4676339285714 2.35838293650793  36.4676339285714 2.67038690476191  C 36.4676339285714 2.79885912698412  36.4583333333333 2.88144841269841  36.4397321428571 2.91815476190476  C 34.468005952381 6.38690476190476  31.5290178571429 11.5900297619048  27.6227678571429 18.5275297619048  C 23.7165178571429 25.4650297619048  20.7868303571429 30.6589781746032  18.8337053571429 34.109375  L 17.4665178571429 36.5595238095238  C 17.280505952381 36.8531746031746  17.0200892857143 37  16.6852678571429 37  C 16.4620535714286 37  15.2157738095238 36.3576388888889  12.9464285714286 35.0729166666667  C 12.6488095238095 34.8893849206349  12.5 34.6324404761905  12.5 34.3020833333333  C 12.5 34.0818452380952  12.9092261904762 33.2834821428571  13.7276785714286 31.906994047619  C 11.0677083333333 30.7140376984127  8.61700148809524 29.1264880952381  6.37555803571429 27.1443452380952  C 4.13411458333333 25.1622023809524  2.19494047619048 22.9139384920635  0.558035714285714 20.3995535714286  C 0.186011904761905 19.8306051587302  0 19.1974206349206  0 18.5  C 0 17.8025793650794  0.186011904761905 17.1693948412698  0.558035714285714 16.6004464285714  C 3.40401785714286 12.2874503968254  6.93824404761905 8.8829365079365  11.1607142857143 6.38690476190476  C 15.3831845238095 3.89087301587301  19.9962797619048 2.64285714285714  25 2.64285714285714  C 26.655505952381 2.64285714285714  28.3296130952381 2.79885912698412  30.0223214285714 3.11086309523809  L 31.5290178571429 0.440476190476189  C 31.7150297619048 0.146825396825396  31.9754464285714 0  32.3102678571429 0  C 32.4032738095238 0  32.5706845238095 0.0550595238095236  32.8125 0.165178571428571  C 33.0543154761905 0.275297619047618  33.3426339285714 0.417534722222218  33.6774553571429 0.591889880952382  C 34.0122767857143 0.766245039682538  34.3191964285714 0.936011904761906  34.5982142857143 1.10119047619048  C 34.8772321428571 1.26636904761905  35.1702008928571 1.43613591269841  35.4771205357143 1.61049107142857  C 35.7840401785714 1.78484623015873  35.9654017857143 1.89037698412698  36.0212053571429 1.92708333333333  Z M 37.2767857142857 12.6636904761905  C 37.4255952380952 13.4895833333333  37.5 14.2604166666667  37.5 14.9761904761905  C 37.5 17.5272817460317  36.7652529761905 19.8535466269841  35.2957589285714 21.9549851190476  C 33.8262648809524 24.0564236111111  31.8824404761905 25.5659722222222  29.4642857142857 26.483630952381  L 37.2767857142857 12.6636904761905  Z M 49.4419642857143 16.6004464285714  C 49.8139880952381 17.2244543650794  50 17.8576388888889  50 18.5  C 50 19.1423611111111  49.8139880952381 19.7755456349206  49.4419642857143 20.3995535714286  C 48.7165178571429 21.5741567460317  47.7027529761905 22.9047619047619  46.4006696428571 24.391369047619  C 43.6104910714286 27.5481150793651  40.3785342261905 29.9982638888889  36.7047991071429 31.7418154761905  C 33.0310639880952 33.4853670634921  29.1294642857143 34.3571428571429  25 34.3571428571429  L 27.0647321428571 30.7232142857143  C 31.0081845238095 30.3928571428571  34.6586681547619 29.1356646825397  38.0161830357143 26.9516369047619  C 41.3736979166667 24.7676091269841  44.1778273809524 21.9503968253968  46.4285714285714 18.5  C 44.2894345238095 15.2147817460317  41.6666666666667 12.5168650793651  38.5602678571429 10.40625  L 40.3180803571429 7.32291666666667  C 42.085193452381 8.49751984126984  43.7825520833333 9.90153769841269  45.41015625 11.5349702380952  C 47.0377604166667 13.1684027777778  48.3816964285714 14.8568948412698  49.4419642857143 16.6004464285714  Z " fill-rule="nonzero" fill="#000000" stroke="none" transform="matrix(1 0 0 1 702 479 )" />
  </g>
</svg>