<?xml version="1.0" encoding="utf-8"?>
<svg version="1.1" xmlns:xlink="http://www.w3.org/1999/xlink" width="50px" height="37px" xmlns="http://www.w3.org/2000/svg">
  <g transform="matrix(1 0 0 1 -702 -479 )">
    <path d="M 37.1233258928571 28.9865451388889  C 40.8528645833333 26.3849826388889  43.9546130952381 22.8894675925926  46.4285714285714 18.5  C 43.6011904761905 13.4467592592593  40.0576636904762 9.66753472222222  35.7979910714286 7.16232638888889  C 36.9326636904762 9.38917824074074  37.5 11.7980324074074  37.5 14.3888888888889  C 37.5 18.3501157407407  36.2769717261905 21.7385706018518  33.8309151785714 24.5542534722222  C 31.3848586309524 27.3699363425926  28.4412202380952 28.7777777777778  25 28.7777777777778  C 21.5587797619048 28.7777777777778  18.6151413690476 27.3699363425926  16.1690848214286 24.5542534722222  C 13.7230282738095 21.7385706018518  12.5 18.3501157407407  12.5 14.3888888888889  C 12.5 11.7980324074074  13.0673363095238 9.38917824074074  14.2020089285714 7.16232638888889  C 9.94233630952381 9.66753472222222  6.39880952380952 13.4467592592593  3.57142857142857 18.5  C 6.04538690476191 22.8894675925926  9.14713541666667 26.3849826388889  12.8766741071429 28.9865451388889  C 16.6062127976191 31.5881076388889  20.6473214285714 32.8888888888889  25 32.8888888888889  C 29.3526785714286 32.8888888888889  33.393787202381 31.5881076388889  37.1233258928571 28.9865451388889  Z M 25.9486607142857 7.25868055555556  C 26.2090773809524 6.95891203703704  26.3392857142857 6.59490740740741  26.3392857142857 6.16666666666667  C 26.3392857142857 5.73842592592592  26.2090773809524 5.37442129629629  25.9486607142857 5.07465277777778  C 25.6882440476191 4.77488425925926  25.3720238095238 4.625  25 4.625  C 22.6748511904762 4.625  20.6798735119048 5.58318865740741  19.0150669642857 7.49956597222222  C 17.3502604166667 9.41594328703704  16.5178571428571 11.7123842592593  16.5178571428571 14.3888888888889  C 16.5178571428571 14.8171296296296  16.6480654761905 15.1811342592593  16.9084821428571 15.4809027777778  C 17.1688988095238 15.7806712962963  17.4851190476191 15.9305555555556  17.8571428571429 15.9305555555556  C 18.2291666666667 15.9305555555556  18.5453869047619 15.7806712962963  18.8058035714286 15.4809027777778  C 19.0662202380952 15.1811342592593  19.1964285714286 14.8171296296296  19.1964285714286 14.3888888888889  C 19.1964285714286 12.5474537037037  19.7637648809524 10.9736689814815  20.8984375 9.66753472222222  C 22.0331101190476 8.36140046296296  23.4002976190476 7.70833333333333  25 7.70833333333333  C 25.3720238095238 7.70833333333333  25.6882440476191 7.55844907407407  25.9486607142857 7.25868055555556  Z M 49.4419642857143 16.2838541666667  C 49.8139880952381 17.033275462963  50 17.7719907407407  50 18.5  C 50 19.2280092592593  49.8139880952381 19.966724537037  49.4419642857143 20.7161458333333  C 46.8377976190476 25.6409143518518  43.3361235119048 29.5860821759259  38.9369419642857 32.5516493055556  C 34.5377604166667 35.5172164351852  29.8921130952381 37  25 37  C 20.1078869047619 37  15.4622395833333 35.5118634259259  11.0630580357143 32.5355902777778  C 6.66387648809524 29.5593171296296  3.16220238095238 25.6195023148148  0.558035714285714 20.7161458333333  C 0.186011904761905 19.966724537037  0 19.2280092592593  0 18.5  C 0 17.7719907407407  0.186011904761905 17.033275462963  0.558035714285714 16.2838541666667  C 3.16220238095238 11.3804976851852  6.66387648809524 7.44068287037037  11.0630580357143 4.46440972222222  C 15.4622395833333 1.48813657407407  20.1078869047619 0  25 0  C 29.8921130952381 0  34.5377604166667 1.48813657407407  38.9369419642857 4.46440972222222  C 43.3361235119048 7.44068287037037  46.8377976190476 11.3804976851852  49.4419642857143 16.2838541666667  Z " fill-rule="nonzero" fill="#000000" stroke="none" transform="matrix(1 0 0 1 702 479 )" />
  </g>
</svg>