<?xml version="1.0" encoding="utf-8"?>
<svg version="1.1" xmlns:xlink="http://www.w3.org/1999/xlink" width="27px" height="20px" xmlns="http://www.w3.org/2000/svg">
  <g transform="matrix(1 0 0 1 -1003 -15 )">
    <path d="M 10.9859693877551 18.2890625  C 10.9744897959184 18.3463541666667  10.9859693877551 18.4166666666667  11.0204081632653 18.5  C 11.0204081632653 18.5416666666667  11.0261479591837 18.6458333333333  11.0376275510204 18.8125  C 11.0491071428571 18.9791666666667  11.0519770408163 19.1171875  11.046237244898 19.2265625  C 11.0404974489796 19.3359375  11.0232780612245 19.4583333333333  10.9945790816327 19.59375  C 10.9658801020408 19.7291666666667  10.9084821428571 19.8307291666667  10.8223852040816 19.8984375  C 10.7362882653061 19.9661458333333  10.6186224489796 20  10.469387755102 20  L 4.95918367346939 20  C 3.59311224489796 20  2.4250637755102 19.5598958333333  1.45503826530612 18.6796875  C 0.485012755102041 17.7994791666667  0 16.7395833333333  0 15.5  L 0 4.5  C 0 3.26041666666666  0.485012755102041 2.20052083333333  1.45503826530612 1.3203125  C 2.4250637755102 0.440104166666664  3.59311224489796 0  4.95918367346939 0  L 10.469387755102 0  C 10.6186224489796 0  10.7477678571429 0.0494791666666639  10.8568239795918 0.1484375  C 10.9658801020408 0.247395833333333  11.0204081632653 0.364583333333333  11.0204081632653 0.5  C 11.0204081632653 0.541666666666665  11.0261479591837 0.645833333333332  11.0376275510204 0.8125  C 11.0491071428571 0.979166666666664  11.0519770408163 1.1171875  11.046237244898 1.2265625  C 11.0404974489796 1.3359375  11.0232780612245 1.45833333333333  10.9945790816327 1.59375  C 10.9658801020408 1.72916666666666  10.9084821428571 1.83072916666666  10.8223852040816 1.8984375  C 10.7362882653061 1.96614583333333  10.6186224489796 2  10.469387755102 2  L 4.95918367346939 2  C 4.2015306122449 2  3.55293367346939 2.24479166666666  3.01339285714286 2.734375  C 2.47385204081633 3.22395833333333  2.20408163265306 3.8125  2.20408163265306 4.5  L 2.20408163265306 15.5  C 2.20408163265306 16.1875  2.47385204081633 16.7760416666667  3.01339285714286 17.265625  C 3.55293367346939 17.7552083333333  4.2015306122449 18  4.95918367346939 18  L 9.91836734693878 18  L 10.1077806122449 18  L 10.3316326530612 18  C 10.3316326530612 18  10.3976403061224 18.0052083333333  10.5296556122449 18.015625  C 10.6616709183673 18.0260416666667  10.7276785714286 18.0416666666667  10.7276785714286 18.0625  C 10.7276785714286 18.0833333333333  10.7735969387755 18.1119791666667  10.8654336734694 18.1484375  C 10.9572704081633 18.1848958333333  10.9974489795918 18.2317708333333  10.9859693877551 18.2890625  Z M 26.6728316326531 9.296875  C 26.890943877551 9.49479166666667  27 9.72916666666667  27 10  C 27 10.2708333333333  26.890943877551 10.5052083333333  26.6728316326531 10.703125  L 17.3054846938776 19.203125  C 17.0873724489796 19.4010416666667  16.8290816326531 19.5  16.530612244898 19.5  C 16.2321428571429 19.5  15.9738520408163 19.4010416666667  15.7557397959184 19.203125  C 15.5376275510204 19.0052083333333  15.4285714285714 18.7708333333333  15.4285714285714 18.5  L 15.4285714285714 14  L 7.71428571428571 14  C 7.41581632653061 14  7.15752551020408 13.9010416666667  6.93941326530612 13.703125  C 6.72130102040816 13.5052083333333  6.61224489795918 13.2708333333333  6.61224489795918 13  L 6.61224489795918 7  C 6.61224489795918 6.72916666666666  6.72130102040816 6.49479166666666  6.93941326530612 6.296875  C 7.15752551020408 6.09895833333333  7.41581632653061 6  7.71428571428571 6  L 15.4285714285714 6  L 15.4285714285714 1.5  C 15.4285714285714 1.22916666666666  15.5376275510204 0.994791666666663  15.7557397959184 0.796874999999999  C 15.9738520408163 0.598958333333333  16.2321428571429 0.5  16.530612244898 0.5  C 16.8290816326531 0.5  17.0873724489796 0.598958333333333  17.3054846938776 0.796874999999999  L 26.6728316326531 9.296875  Z " fill-rule="nonzero" fill="#7f7f7f" stroke="none" transform="matrix(1 0 0 1 1003 15 )" />
  </g>
</svg>