<?xml version="1.0" encoding="utf-8"?>
<svg version="1.1" xmlns:xlink="http://www.w3.org/1999/xlink" width="26px" height="19px" xmlns="http://www.w3.org/2000/svg">
  <g transform="matrix(1 0 0 1 -239 -16 )">
    <path d="M 12.8857421875 10.9534505208333  C 12.9619140625 11.3946397569444  13 11.8791232638889  13 12.4069010416667  C 13 12.9346788194444  12.8434244791667 13.3738064236111  12.5302734375 13.7242838541667  C 12.2171223958333 14.0747612847222  11.83203125 14.25  11.375 14.25  L 4.875 14.25  C 4.41796875 14.25  4.03287760416667 14.0747612847222  3.7197265625 13.7242838541667  C 3.40657552083333 13.3738064236111  3.25 12.9346788194444  3.25 12.4069010416667  C 3.25 11.8791232638889  3.2880859375 11.3946397569444  3.3642578125 10.9534505208333  C 3.4404296875 10.5122612847222  3.56526692708333 10.0875651041667  3.73876953125 9.67936197916667  C 3.91227213541667 9.27115885416667  4.16829427083333 8.94954427083333  4.5068359375 8.71451822916667  C 4.84537760416667 8.4794921875  5.255859375 8.36197916666667  5.73828125 8.36197916666667  C 5.7890625 8.39496527777778  5.916015625 8.46918402777778  6.119140625 8.58463541666667  C 6.322265625 8.70008680555555  6.48095703125 8.78873697916667  6.59521484375 8.8505859375  C 6.70947265625 8.91243489583333  6.85970052083333 8.98459201388889  7.0458984375 9.06705729166667  C 7.23209635416667 9.14952256944444  7.4140625 9.20930989583333  7.591796875 9.24641927083333  C 7.76953125 9.28352864583333  7.947265625 9.30208333333333  8.125 9.30208333333333  C 8.302734375 9.30208333333333  8.48046875 9.28352864583333  8.658203125 9.24641927083333  C 8.8359375 9.20930989583333  9.01790364583333 9.14952256944444  9.2041015625 9.06705729166667  C 9.39029947916667 8.98459201388889  9.54052734375 8.91243489583333  9.65478515625 8.8505859375  C 9.76904296875 8.78873697916667  9.927734375 8.70008680555555  10.130859375 8.58463541666667  C 10.333984375 8.46918402777778  10.4609375 8.39496527777778  10.51171875 8.36197916666667  C 10.994140625 8.36197916666667  11.4046223958333 8.4794921875  11.7431640625 8.71451822916667  C 12.0817057291667 8.94954427083333  12.3377278645833 9.27115885416667  12.51123046875 9.67936197916667  C 12.6847330729167 10.0875651041667  12.8095703125 10.5122612847222  12.8857421875 10.9534505208333  Z M 10.16259765625 3.9892578125  C 10.7254231770833 4.53765190972222  11.0068359375 5.19943576388889  11.0068359375 5.974609375  C 11.0068359375 6.74978298611111  10.7254231770833 7.41156684027778  10.16259765625 7.9599609375  C 9.59977213541667 8.50835503472222  8.92057291666667 8.78255208333333  8.125 8.78255208333333  C 7.32942708333333 8.78255208333333  6.65022786458333 8.50835503472222  6.08740234375 7.9599609375  C 5.52457682291667 7.41156684027778  5.2431640625 6.74978298611111  5.2431640625 5.974609375  C 5.2431640625 5.19943576388889  5.52457682291667 4.53765190972222  6.08740234375 3.9892578125  C 6.65022786458333 3.44086371527778  7.32942708333333 3.16666666666667  8.125 3.16666666666667  C 8.92057291666667 3.16666666666667  9.59977213541667 3.44086371527778  10.16259765625 3.9892578125  Z M 22.6357421875 11.1946614583333  C 22.7119140625 11.2688802083333  22.75 11.3637152777778  22.75 11.4791666666667  L 22.75 12.2708333333333  C 22.75 12.3862847222222  22.7119140625 12.4811197916667  22.6357421875 12.5553385416667  C 22.5595703125 12.6295572916667  22.4622395833333 12.6666666666667  22.34375 12.6666666666667  L 15.03125 12.6666666666667  C 14.9127604166667 12.6666666666667  14.8154296875 12.6295572916667  14.7392578125 12.5553385416667  C 14.6630859375 12.4811197916667  14.625 12.3862847222222  14.625 12.2708333333333  L 14.625 11.4791666666667  C 14.625 11.3637152777778  14.6630859375 11.2688802083333  14.7392578125 11.1946614583333  C 14.8154296875 11.1204427083333  14.9127604166667 11.0833333333333  15.03125 11.0833333333333  L 22.34375 11.0833333333333  C 22.4622395833333 11.0833333333333  22.5595703125 11.1204427083333  22.6357421875 11.1946614583333  Z M 22.61669921875 8.04654947916667  C 22.70556640625 8.13313802083333  22.75 8.23828125  22.75 8.36197916666667  L 22.75 9.0546875  C 22.75 9.17838541666667  22.70556640625 9.28352864583333  22.61669921875 9.3701171875  C 22.52783203125 9.45670572916667  22.419921875 9.5  22.29296875 9.5  L 15.08203125 9.5  C 14.955078125 9.5  14.84716796875 9.45670572916667  14.75830078125 9.3701171875  C 14.66943359375 9.28352864583333  14.625 9.17838541666667  14.625 9.0546875  L 14.625 8.36197916666667  C 14.625 8.23828125  14.66943359375 8.13313802083333  14.75830078125 8.04654947916667  C 14.84716796875 7.9599609375  14.955078125 7.91666666666667  15.08203125 7.91666666666667  L 22.29296875 7.91666666666667  C 22.419921875 7.91666666666667  22.52783203125 7.9599609375  22.61669921875 8.04654947916667  Z M 22.6357421875 4.861328125  C 22.7119140625 4.935546875  22.75 5.03038194444444  22.75 5.14583333333333  L 22.75 5.9375  C 22.75 6.05295138888889  22.7119140625 6.14778645833333  22.6357421875 6.22200520833333  C 22.5595703125 6.29622395833333  22.4622395833333 6.33333333333333  22.34375 6.33333333333333  L 15.03125 6.33333333333333  C 14.9127604166667 6.33333333333333  14.8154296875 6.29622395833333  14.7392578125 6.22200520833333  C 14.6630859375 6.14778645833333  14.625 6.05295138888889  14.625 5.9375  L 14.625 5.14583333333333  C 14.625 5.03038194444444  14.6630859375 4.935546875  14.7392578125 4.861328125  C 14.8154296875 4.787109375  14.9127604166667 4.75  15.03125 4.75  L 22.34375 4.75  C 22.4622395833333 4.75  22.5595703125 4.787109375  22.6357421875 4.861328125  Z M 24.25439453125 17.2991536458333  C 24.3347981770833 17.2208116319444  24.375 17.1280381944444  24 17.0208333333333  L 24 1.97916666666667  C 24.375 1.87196180555555  24.3347981770833 1.77918836805555  24.25439453125 1.70084635416667  C 24.1739908854167 1.62250434027778  24.0787760416667 1.58333333333333  23.96875 1.58333333333333  L 2.03125 1.58333333333333  C 1.92122395833333 1.58333333333333  1.82600911458333 1.62250434027778  1.74560546875 1.70084635416667  C 1.66520182291667 1.77918836805555  1.625 1.87196180555555  2 1.97916666666667  L 2 17.0208333333333  C 1.625 17.1280381944444  1.66520182291667 17.2208116319444  1.74560546875 17.2991536458333  C 1.82600911458333 17.3774956597222  1.92122395833333 17.4166666666667  2.03125 17.4166666666667  L 6.5 17.4166666666667  L 6.5 16.2291666666667  C 6.5 16.1137152777778  6.5380859375 16.0188802083333  6.6142578125 15.9446614583333  C 6.6904296875 15.8704427083333  6.78776041666667 15.8333333333333  6.90625 15.8333333333333  L 7.71875 15.8333333333333  C 7.83723958333333 15.8333333333333  7.9345703125 15.8704427083333  8.0107421875 15.9446614583333  C 8.0869140625 16.0188802083333  8.125 16.1137152777778  8.125 16.2291666666667  L 8.125 17.4166666666667  L 17.875 17.4166666666667  L 17.875 16.2291666666667  C 17.875 16.1137152777778  17.9130859375 16.0188802083333  17.9892578125 15.9446614583333  C 18.0654296875 15.8704427083333  18.1627604166667 15.8333333333333  18.28125 15.8333333333333  L 19.09375 15.8333333333333  C 19.2122395833333 15.8333333333333  19.3095703125 15.8704427083333  19.3857421875 15.9446614583333  C 19.4619140625 16.0188802083333  19.5 16.1137152777778  19.5 16.2291666666667  L 19.5 17.4166666666667  L 23.96875 17.4166666666667  C 24.0787760416667 17.4166666666667  24.1739908854167 17.3774956597222  24.25439453125 17.2991536458333  Z M 25.4033203125 0.581380208333334  C 25.8011067708333 0.968967013888888  26 1.43489583333333  26 1.97916666666667  L 26 17.0208333333333  C 26 17.5651041666667  25.8011067708333 18.0310329861111  25.4033203125 18.4186197916667  C 25.0055338541667 18.8062065972222  24.52734375 19  23.96875 19  L 2.03125 19  C 1.47265625 19  0.994466145833333 18.8062065972222  0.5966796875 18.4186197916667  C 0.198893229166667 18.0310329861111  0 17.5651041666667  0 17.0208333333333  L 0 1.97916666666667  C 0 1.43489583333333  0.198893229166667 0.968967013888888  0.5966796875 0.581380208333334  C 0.994466145833333 0.193793402777776  1.47265625 0  2.03125 0  L 23.96875 0  C 24.52734375 0  25.0055338541667 0.193793402777776  25.4033203125 0.581380208333334  Z " fill-rule="nonzero" fill="#555555" stroke="none" transform="matrix(1 0 0 1 239 16 )" />
  </g>
</svg>