<?xml version="1.0" encoding="utf-8"?>
<svg version="1.1" xmlns:xlink="http://www.w3.org/1999/xlink" width="12px" height="12px" viewBox="322 243.5  12 12" xmlns="http://www.w3.org/2000/svg">
  <path d="M 328 243.5  C 331.36 243.5  334 246.14  334 249.5  C 334 252.86  331.36 255.5  328 255.5  C 324.64 255.5  322 252.86  322 249.5  C 322 246.14  324.64 243.5  328 243.5  Z " fill-rule="nonzero" fill="#ffffff" stroke="none" />
  <path d="M 328 244  C 331.08 244  333.5 246.42  333.5 249.5  C 333.5 252.58  331.08 255  328 255  C 324.92 255  322.5 252.58  322.5 249.5  C 322.5 246.42  324.92 244  328 244  Z " stroke-width="1" stroke="#797979" fill="none" />
  <path d="M 328 252.5  C 326.32 252.5  325 251.18  325 249.5  C 325 247.82  326.32 246.5  328 246.5  C 329.68 246.5  331 247.82  331 249.5  C 331 251.18  329.68 252.5  328 252.5  " fill-rule="nonzero" fill="#797979" stroke="none" />
</svg>