<?xml version="1.0" encoding="utf-8"?>
<svg version="1.1" xmlns:xlink="http://www.w3.org/1999/xlink" width="12px" height="12px" viewBox="452 243.5  12 12" xmlns="http://www.w3.org/2000/svg">
  <path d="M 458 243.5  C 461.36 243.5  464 246.14  464 249.5  C 464 252.86  461.36 255.5  458 255.5  C 454.64 255.5  452 252.86  452 249.5  C 452 246.14  454.64 243.5  458 243.5  Z " fill-rule="nonzero" fill="#ffffff" stroke="none" />
  <path d="M 458 244  C 461.08 244  463.5 246.42  463.5 249.5  C 463.5 252.58  461.08 255  458 255  C 454.92 255  452.5 252.58  452.5 249.5  C 452.5 246.42  454.92 244  458 244  Z " stroke-width="1" stroke="#797979" fill="none" />
  <path d="M 458 252.5  C 456.32 252.5  455 251.18  455 249.5  C 455 247.82  456.32 246.5  458 246.5  C 459.68 246.5  461 247.82  461 249.5  C 461 251.18  459.68 252.5  458 252.5  " fill-rule="nonzero" fill="#797979" stroke="none" />
</svg>