<?xml version="1.0" encoding="utf-8"?>
<svg version="1.1" xmlns:xlink="http://www.w3.org/1999/xlink" width="12px" height="12px" viewBox="582 243.5  12 12" xmlns="http://www.w3.org/2000/svg">
  <path d="M 588 243.5  C 591.36 243.5  594 246.14  594 249.5  C 594 252.86  591.36 255.5  588 255.5  C 584.64 255.5  582 252.86  582 249.5  C 582 246.14  584.64 243.5  588 243.5  Z " fill-rule="nonzero" fill="#ffffff" stroke="none" />
  <path d="M 588 244  C 591.08 244  593.5 246.42  593.5 249.5  C 593.5 252.58  591.08 255  588 255  C 584.92 255  582.5 252.58  582.5 249.5  C 582.5 246.42  584.92 244  588 244  Z " stroke-width="1" stroke="#797979" fill="none" />
  <path d="M 588 252.5  C 586.32 252.5  585 251.18  585 249.5  C 585 247.82  586.32 246.5  588 246.5  C 589.68 246.5  591 247.82  591 249.5  C 591 251.18  589.68 252.5  588 252.5  " fill-rule="nonzero" fill="#797979" stroke="none" />
</svg>