<?xml version="1.0" encoding="utf-8"?>
<svg version="1.1" xmlns:xlink="http://www.w3.org/1999/xlink" width="12px" height="12px" viewBox="712 243.5  12 12" xmlns="http://www.w3.org/2000/svg">
  <path d="M 718 243.5  C 721.36 243.5  724 246.14  724 249.5  C 724 252.86  721.36 255.5  718 255.5  C 714.64 255.5  712 252.86  712 249.5  C 712 246.14  714.64 243.5  718 243.5  Z " fill-rule="nonzero" fill="#ffffff" stroke="none" />
  <path d="M 718 244  C 721.08 244  723.5 246.42  723.5 249.5  C 723.5 252.58  721.08 255  718 255  C 714.92 255  712.5 252.58  712.5 249.5  C 712.5 246.42  714.92 244  718 244  Z " stroke-width="1" stroke="#797979" fill="none" />
  <path d="M 718 252.5  C 716.32 252.5  715 251.18  715 249.5  C 715 247.82  716.32 246.5  718 246.5  C 719.68 246.5  721 247.82  721 249.5  C 721 251.18  719.68 252.5  718 252.5  " fill-rule="nonzero" fill="#797979" stroke="none" />
</svg>