<?xml version="1.0" encoding="utf-8"?>
<svg version="1.1" xmlns:xlink="http://www.w3.org/1999/xlink" width="12px" height="12px" viewBox="452 314.5  12 12" xmlns="http://www.w3.org/2000/svg">
  <path d="M 458 314.5  C 461.36 314.5  464 317.14  464 320.5  C 464 323.86  461.36 326.5  458 326.5  C 454.64 326.5  452 323.86  452 320.5  C 452 317.14  454.64 314.5  458 314.5  Z " fill-rule="nonzero" fill="#ffffff" stroke="none" />
  <path d="M 458 315  C 461.08 315  463.5 317.42  463.5 320.5  C 463.5 323.58  461.08 326  458 326  C 454.92 326  452.5 323.58  452.5 320.5  C 452.5 317.42  454.92 315  458 315  Z " stroke-width="1" stroke="#797979" fill="none" />
  <path d="M 458 323.5  C 456.32 323.5  455 322.18  455 320.5  C 455 318.82  456.32 317.5  458 317.5  C 459.68 317.5  461 318.82  461 320.5  C 461 322.18  459.68 323.5  458 323.5  " fill-rule="nonzero" fill="#797979" stroke="none" />
</svg>