<?xml version="1.0" encoding="utf-8"?>
<svg version="1.1" xmlns:xlink="http://www.w3.org/1999/xlink" width="12px" height="12px" viewBox="582 314.5  12 12" xmlns="http://www.w3.org/2000/svg">
  <path d="M 588 314.5  C 591.36 314.5  594 317.14  594 320.5  C 594 323.86  591.36 326.5  588 326.5  C 584.64 326.5  582 323.86  582 320.5  C 582 317.14  584.64 314.5  588 314.5  Z " fill-rule="nonzero" fill="#ffffff" stroke="none" />
  <path d="M 588 315  C 591.08 315  593.5 317.42  593.5 320.5  C 593.5 323.58  591.08 326  588 326  C 584.92 326  582.5 323.58  582.5 320.5  C 582.5 317.42  584.92 315  588 315  Z " stroke-width="1" stroke="#797979" fill="none" />
  <path d="M 588 323.5  C 586.32 323.5  585 322.18  585 320.5  C 585 318.82  586.32 317.5  588 317.5  C 589.68 317.5  591 318.82  591 320.5  C 591 322.18  589.68 323.5  588 323.5  " fill-rule="nonzero" fill="#797979" stroke="none" />
</svg>