<?xml version="1.0" encoding="utf-8"?>
<svg version="1.1" xmlns:xlink="http://www.w3.org/1999/xlink" width="12px" height="12px" viewBox="452 382.5  12 12" xmlns="http://www.w3.org/2000/svg">
  <path d="M 458 382.5  C 461.36 382.5  464 385.14  464 388.5  C 464 391.86  461.36 394.5  458 394.5  C 454.64 394.5  452 391.86  452 388.5  C 452 385.14  454.64 382.5  458 382.5  Z " fill-rule="nonzero" fill="#ffffff" stroke="none" />
  <path d="M 458 383  C 461.08 383  463.5 385.42  463.5 388.5  C 463.5 391.58  461.08 394  458 394  C 454.92 394  452.5 391.58  452.5 388.5  C 452.5 385.42  454.92 383  458 383  Z " stroke-width="1" stroke="#797979" fill="none" />
  <path d="M 458 391.5  C 456.32 391.5  455 390.18  455 388.5  C 455 386.82  456.32 385.5  458 385.5  C 459.68 385.5  461 386.82  461 388.5  C 461 390.18  459.68 391.5  458 391.5  " fill-rule="nonzero" fill="#797979" stroke="none" />
</svg>