<?xml version="1.0" encoding="utf-8"?>
<svg version="1.1" xmlns:xlink="http://www.w3.org/1999/xlink" width="12px" height="12px" viewBox="582 382.5  12 12" xmlns="http://www.w3.org/2000/svg">
  <path d="M 588 382.5  C 591.36 382.5  594 385.14  594 388.5  C 594 391.86  591.36 394.5  588 394.5  C 584.64 394.5  582 391.86  582 388.5  C 582 385.14  584.64 382.5  588 382.5  Z " fill-rule="nonzero" fill="#ffffff" stroke="none" />
  <path d="M 588 383  C 591.08 383  593.5 385.42  593.5 388.5  C 593.5 391.58  591.08 394  588 394  C 584.92 394  582.5 391.58  582.5 388.5  C 582.5 385.42  584.92 383  588 383  Z " stroke-width="1" stroke="#797979" fill="none" />
  <path d="M 588 391.5  C 586.32 391.5  585 390.18  585 388.5  C 585 386.82  586.32 385.5  588 385.5  C 589.68 385.5  591 386.82  591 388.5  C 591 390.18  589.68 391.5  588 391.5  " fill-rule="nonzero" fill="#797979" stroke="none" />
</svg>