<?xml version="1.0" encoding="utf-8"?>
<svg version="1.1" xmlns:xlink="http://www.w3.org/1999/xlink" width="12px" height="12px" viewBox="712 382.5  12 12" xmlns="http://www.w3.org/2000/svg">
  <path d="M 718 382.5  C 721.36 382.5  724 385.14  724 388.5  C 724 391.86  721.36 394.5  718 394.5  C 714.64 394.5  712 391.86  712 388.5  C 712 385.14  714.64 382.5  718 382.5  Z " fill-rule="nonzero" fill="#ffffff" stroke="none" />
  <path d="M 718 383  C 721.08 383  723.5 385.42  723.5 388.5  C 723.5 391.58  721.08 394  718 394  C 714.92 394  712.5 391.58  712.5 388.5  C 712.5 385.42  714.92 383  718 383  Z " stroke-width="1" stroke="#797979" fill="none" />
  <path d="M 718 391.5  C 716.32 391.5  715 390.18  715 388.5  C 715 386.82  716.32 385.5  718 385.5  C 719.68 385.5  721 386.82  721 388.5  C 721 390.18  719.68 391.5  718 391.5  " fill-rule="nonzero" fill="#797979" stroke="none" />
</svg>