<?xml version="1.0" encoding="utf-8"?>
<svg version="1.1" xmlns:xlink="http://www.w3.org/1999/xlink" width="12px" height="12px" viewBox="452 456.5  12 12" xmlns="http://www.w3.org/2000/svg">
  <path d="M 458 456.5  C 461.36 456.5  464 459.14  464 462.5  C 464 465.86  461.36 468.5  458 468.5  C 454.64 468.5  452 465.86  452 462.5  C 452 459.14  454.64 456.5  458 456.5  Z " fill-rule="nonzero" fill="#ffffff" stroke="none" />
  <path d="M 458 457  C 461.08 457  463.5 459.42  463.5 462.5  C 463.5 465.58  461.08 468  458 468  C 454.92 468  452.5 465.58  452.5 462.5  C 452.5 459.42  454.92 457  458 457  Z " stroke-width="1" stroke="#797979" fill="none" />
  <path d="M 458 465.5  C 456.32 465.5  455 464.18  455 462.5  C 455 460.82  456.32 459.5  458 459.5  C 459.68 459.5  461 460.82  461 462.5  C 461 464.18  459.68 465.5  458 465.5  " fill-rule="nonzero" fill="#797979" stroke="none" />
</svg>