<?xml version="1.0" encoding="utf-8"?>
<svg version="1.1" xmlns:xlink="http://www.w3.org/1999/xlink" width="12px" height="12px" viewBox="582 456.5  12 12" xmlns="http://www.w3.org/2000/svg">
  <path d="M 588 456.5  C 591.36 456.5  594 459.14  594 462.5  C 594 465.86  591.36 468.5  588 468.5  C 584.64 468.5  582 465.86  582 462.5  C 582 459.14  584.64 456.5  588 456.5  Z " fill-rule="nonzero" fill="#ffffff" stroke="none" />
  <path d="M 588 457  C 591.08 457  593.5 459.42  593.5 462.5  C 593.5 465.58  591.08 468  588 468  C 584.92 468  582.5 465.58  582.5 462.5  C 582.5 459.42  584.92 457  588 457  Z " stroke-width="1" stroke="#797979" fill="none" />
  <path d="M 588 465.5  C 586.32 465.5  585 464.18  585 462.5  C 585 460.82  586.32 459.5  588 459.5  C 589.68 459.5  591 460.82  591 462.5  C 591 464.18  589.68 465.5  588 465.5  " fill-rule="nonzero" fill="#797979" stroke="none" />
</svg>