<?xml version="1.0" encoding="utf-8"?>
<svg version="1.1" xmlns:xlink="http://www.w3.org/1999/xlink" width="12px" height="12px" viewBox="712 456.5  12 12" xmlns="http://www.w3.org/2000/svg">
  <path d="M 718 456.5  C 721.36 456.5  724 459.14  724 462.5  C 724 465.86  721.36 468.5  718 468.5  C 714.64 468.5  712 465.86  712 462.5  C 712 459.14  714.64 456.5  718 456.5  Z " fill-rule="nonzero" fill="#ffffff" stroke="none" />
  <path d="M 718 457  C 721.08 457  723.5 459.42  723.5 462.5  C 723.5 465.58  721.08 468  718 468  C 714.92 468  712.5 465.58  712.5 462.5  C 712.5 459.42  714.92 457  718 457  Z " stroke-width="1" stroke="#797979" fill="none" />
  <path d="M 718 465.5  C 716.32 465.5  715 464.18  715 462.5  C 715 460.82  716.32 459.5  718 459.5  C 719.68 459.5  721 460.82  721 462.5  C 721 464.18  719.68 465.5  718 465.5  " fill-rule="nonzero" fill="#797979" stroke="none" />
</svg>