<?xml version="1.0" encoding="utf-8"?>
<svg version="1.1" xmlns:xlink="http://www.w3.org/1999/xlink" width="12px" height="12px" viewBox="452 527.5  12 12" xmlns="http://www.w3.org/2000/svg">
  <path d="M 458 527.5  C 461.36 527.5  464 530.14  464 533.5  C 464 536.86  461.36 539.5  458 539.5  C 454.64 539.5  452 536.86  452 533.5  C 452 530.14  454.64 527.5  458 527.5  Z " fill-rule="nonzero" fill="#ffffff" stroke="none" />
  <path d="M 458 528  C 461.08 528  463.5 530.42  463.5 533.5  C 463.5 536.58  461.08 539  458 539  C 454.92 539  452.5 536.58  452.5 533.5  C 452.5 530.42  454.92 528  458 528  Z " stroke-width="1" stroke="#797979" fill="none" />
  <path d="M 458 536.5  C 456.32 536.5  455 535.18  455 533.5  C 455 531.82  456.32 530.5  458 530.5  C 459.68 530.5  461 531.82  461 533.5  C 461 535.18  459.68 536.5  458 536.5  " fill-rule="nonzero" fill="#797979" stroke="none" />
</svg>