<?xml version="1.0" encoding="utf-8"?>
<svg version="1.1" xmlns:xlink="http://www.w3.org/1999/xlink" width="12px" height="12px" viewBox="712 527.5  12 12" xmlns="http://www.w3.org/2000/svg">
  <path d="M 718 527.5  C 721.36 527.5  724 530.14  724 533.5  C 724 536.86  721.36 539.5  718 539.5  C 714.64 539.5  712 536.86  712 533.5  C 712 530.14  714.64 527.5  718 527.5  Z " fill-rule="nonzero" fill="#ffffff" stroke="none" />
  <path d="M 718 528  C 721.08 528  723.5 530.42  723.5 533.5  C 723.5 536.58  721.08 539  718 539  C 714.92 539  712.5 536.58  712.5 533.5  C 712.5 530.42  714.92 528  718 528  Z " stroke-width="1" stroke="#797979" fill="none" />
  <path d="M 718 536.5  C 716.32 536.5  715 535.18  715 533.5  C 715 531.82  716.32 530.5  718 530.5  C 719.68 530.5  721 531.82  721 533.5  C 721 535.18  719.68 536.5  718 536.5  " fill-rule="nonzero" fill="#797979" stroke="none" />
</svg>