<?xml version="1.0" encoding="utf-8"?>
<svg version="1.1" xmlns:xlink="http://www.w3.org/1999/xlink" width="12px" height="12px" viewBox="322 597.5  12 12" xmlns="http://www.w3.org/2000/svg">
  <path d="M 328 597.5  C 331.36 597.5  334 600.14  334 603.5  C 334 606.86  331.36 609.5  328 609.5  C 324.64 609.5  322 606.86  322 603.5  C 322 600.14  324.64 597.5  328 597.5  Z " fill-rule="nonzero" fill="#ffffff" stroke="none" />
  <path d="M 328 598  C 331.08 598  333.5 600.42  333.5 603.5  C 333.5 606.58  331.08 609  328 609  C 324.92 609  322.5 606.58  322.5 603.5  C 322.5 600.42  324.92 598  328 598  Z " stroke-width="1" stroke="#797979" fill="none" />
  <path d="M 328 606.5  C 326.32 606.5  325 605.18  325 603.5  C 325 601.82  326.32 600.5  328 600.5  C 329.68 600.5  331 601.82  331 603.5  C 331 605.18  329.68 606.5  328 606.5  " fill-rule="nonzero" fill="#797979" stroke="none" />
</svg>