<?xml version="1.0" encoding="utf-8"?>
<svg version="1.1" xmlns:xlink="http://www.w3.org/1999/xlink" width="12px" height="12px" viewBox="582 597.5  12 12" xmlns="http://www.w3.org/2000/svg">
  <path d="M 588 597.5  C 591.36 597.5  594 600.14  594 603.5  C 594 606.86  591.36 609.5  588 609.5  C 584.64 609.5  582 606.86  582 603.5  C 582 600.14  584.64 597.5  588 597.5  Z " fill-rule="nonzero" fill="#ffffff" stroke="none" />
  <path d="M 588 598  C 591.08 598  593.5 600.42  593.5 603.5  C 593.5 606.58  591.08 609  588 609  C 584.92 609  582.5 606.58  582.5 603.5  C 582.5 600.42  584.92 598  588 598  Z " stroke-width="1" stroke="#797979" fill="none" />
  <path d="M 588 606.5  C 586.32 606.5  585 605.18  585 603.5  C 585 601.82  586.32 600.5  588 600.5  C 589.68 600.5  591 601.82  591 603.5  C 591 605.18  589.68 606.5  588 606.5  " fill-rule="nonzero" fill="#797979" stroke="none" />
</svg>