<?xml version="1.0" encoding="utf-8"?>
<svg version="1.1" xmlns:xlink="http://www.w3.org/1999/xlink" width="12px" height="12px" viewBox="712 597.5  12 12" xmlns="http://www.w3.org/2000/svg">
  <path d="M 718 597.5  C 721.36 597.5  724 600.14  724 603.5  C 724 606.86  721.36 609.5  718 609.5  C 714.64 609.5  712 606.86  712 603.5  C 712 600.14  714.64 597.5  718 597.5  Z " fill-rule="nonzero" fill="#ffffff" stroke="none" />
  <path d="M 718 598  C 721.08 598  723.5 600.42  723.5 603.5  C 723.5 606.58  721.08 609  718 609  C 714.92 609  712.5 606.58  712.5 603.5  C 712.5 600.42  714.92 598  718 598  Z " stroke-width="1" stroke="#797979" fill="none" />
  <path d="M 718 606.5  C 716.32 606.5  715 605.18  715 603.5  C 715 601.82  716.32 600.5  718 600.5  C 719.68 600.5  721 601.82  721 603.5  C 721 605.18  719.68 606.5  718 606.5  " fill-rule="nonzero" fill="#797979" stroke="none" />
</svg>