<?xml version="1.0" encoding="utf-8"?>
<svg version="1.1" xmlns:xlink="http://www.w3.org/1999/xlink" width="22px" height="22px" xmlns="http://www.w3.org/2000/svg">
  <g transform="matrix(1 0 0 1 -18 -29 )">
    <path d="M 21.9453125 16.8079427083333  C 21.9817708333333 17.2901475694444  22 17.7842881944444  22 18.2903645833333  C 22 19.4361979166667  21.6197916666667 20.3409288194444  20.859375 21.0045572916667  C 20.0989583333333 21.6681857638889  19.0885416666667 22  17.828125 22  L 4.171875 22  C 2.91145833333333 22  1.90104166666667 21.6681857638889  1.140625 21.0045572916667  C 0.380208333333333 20.3409288194444  0 19.4361979166667  0 18.2903645833333  C 0 17.7842881944444  0.0182291666666667 17.2901475694444  0.0546875 16.8079427083333  C 0.0911458333333333 16.3257378472222  0.1640625 15.8053385416667  0.2734375 15.2467447916667  C 0.3828125 14.6881510416667  0.520833333333333 14.1701388888889  0.6875 13.6927083333333  C 0.854166666666667 13.2152777777778  1.078125 12.7497829861111  1.359375 12.2962239583333  C 1.640625 11.8426649305556  1.96354166666667 11.4559461805556  2.328125 11.1360677083333  C 2.69270833333333 10.8161892361111  3.13802083333333 10.5607638888889  3.6640625 10.3697916666667  C 4.19010416666667 10.1788194444444  4.77083333333333 10.0833333333333  5.40625 10.0833333333333  C 5.5 10.0833333333333  5.71875 10.1859809027778  6.0625 10.3912760416667  C 6.40625 10.5965711805556  6.79427083333333 10.8257378472222  7.2265625 11.0787760416667  C 7.65885416666667 11.3318142361111  8.22135416666667 11.5609809027778  8.9140625 11.7662760416667  C 9.60677083333333 11.9715711805556  10.3020833333333 12.07421875  11 12.07421875  C 11.6979166666667 12.07421875  12.3932291666667 11.9715711805556  13.0859375 11.7662760416667  C 13.7786458333333 11.5609809027778  14.3411458333333 11.3318142361111  14.7734375 11.0787760416667  C 15.2057291666667 10.8257378472222  15.59375 10.5965711805556  15.9375 10.3912760416667  C 16.28125 10.1859809027778  16.5 10.0833333333333  16.59375 10.0833333333333  C 17.2291666666667 10.0833333333333  17.8098958333333 10.1788194444444  18.3359375 10.3697916666667  C 18.8619791666667 10.5607638888889  19.3072916666667 10.8161892361111  19.671875 11.1360677083333  C 20.0364583333333 11.4559461805556  20.359375 11.8426649305556  20.640625 12.2962239583333  C 20.921875 12.7497829861111  21.1458333333333 13.2152777777778  21.3125 13.6927083333333  C 21.4791666666667 14.1701388888889  21.6171875 14.6881510416667  21.7265625 15.2467447916667  C 21.8359375 15.8053385416667  21.9088541666667 16.3257378472222  21.9453125 16.8079427083333  Z M 15.2421875 1.611328125  C 16.4140625 2.685546875  17 3.98177083333333  17 5.5  C 17 7.01822916666667  16.4140625 8.314453125  15.2421875 9.388671875  C 14.0703125 10.462890625  12.65625 11  11 11  C 9.34375 11  7.9296875 10.462890625  6.7578125 9.388671875  C 5.5859375 8.314453125  5 7.01822916666667  5 5.5  C 5 3.98177083333333  5.5859375 2.685546875  6.7578125 1.611328125  C 7.9296875 0.537109375  9.34375 0  11 0  C 12.65625 0  14.0703125 0.537109375  15.2421875 1.611328125  Z " fill-rule="nonzero" fill="#ffffff" stroke="none" transform="matrix(1 0 0 1 18 29 )" />
  </g>
</svg>