<?xml version="1.0" encoding="utf-8"?>
<svg version="1.1" xmlns:xlink="http://www.w3.org/1999/xlink" width="16px" height="17px" xmlns="http://www.w3.org/2000/svg">
  <g transform="matrix(1 0 0 1 -991 -21 )">
    <path d="M 15.1614583333333 5.64963942307692  C 15.7204861111111 6.74619391025641  16 7.91426282051282  16 9.15384615384615  C 16 10.2163461538462  15.7881944444444 11.2311698717949  15.3645833333333 12.1983173076923  C 14.9409722222222 13.1654647435897  14.3715277777778 13.9997996794872  13.65625 14.7013221153846  C 12.9409722222222 15.4028445512821  12.0902777777778 15.9613381410256  11.1041666666667 16.3768028846154  C 10.1180555555556 16.7922676282051  9.08333333333333 17  8 17  C 6.91666666666667 17  5.88194444444445 16.7922676282051  4.89583333333333 16.3768028846154  C 3.90972222222222 15.9613381410256  3.05902777777778 15.4028445512821  2.34375 14.7013221153846  C 1.62847222222222 13.9997996794872  1.05902777777778 13.1654647435897  0.635416666666667 12.1983173076923  C 0.211805555555556 11.2311698717949  0 10.2163461538462  0 9.15384615384615  C 0 7.91426282051282  0.279513888888889 6.74619391025641  0.838541666666667 5.64963942307692  C 1.39756944444444 4.55308493589743  2.18402777777778 3.63361378205128  3.19791666666667 2.89122596153846  C 3.49652777777778 2.67327724358974  3.828125 2.58814102564102  4.19270833333333 2.63581730769231  C 4.55729166666667 2.68349358974359  4.84722222222222 2.85376602564102  5.0625 3.14663461538462  C 5.28472222222222 3.43269230769231  5.36979166666667 3.75450721153846  5.31770833333333 4.11207932692308  C 5.265625 4.46965144230769  5.09375 4.75741185897436  4.80208333333333 4.97536057692308  C 4.12152777777778 5.47936698717949  3.59548611111111 6.0957532051282  3.22395833333333 6.82451923076923  C 2.85243055555556 7.55328525641026  2.66666666666667 8.32972756410256  2.66666666666667 9.15384615384615  C 2.66666666666667 9.86217948717949  2.80729166666667 10.5381610576923  3.08854166666667 11.1817908653846  C 3.36979166666667 11.8254206730769  3.75 12.3822115384615  4.22916666666667 12.8521634615385  C 4.70833333333333 13.3221153846154  5.27604166666667 13.6950120192308  5.93229166666667 13.9708533653846  C 6.58854166666667 14.2466947115385  7.27777777777778 14.3846153846154  8 14.3846153846154  C 8.72222222222222 14.3846153846154  9.41145833333333 14.2466947115385  10.0677083333333 13.9708533653846  C 10.7239583333333 13.6950120192308  11.2916666666667 13.3221153846154  11.7708333333333 12.8521634615385  C 12.25 12.3822115384615  12.6302083333333 11.8254206730769  12.9114583333333 11.1817908653846  C 13.1927083333333 10.5381610576923  13.3333333333333 9.86217948717949  13.3333333333333 9.15384615384615  C 13.3333333333333 8.32972756410256  13.1475694444444 7.55328525641026  12.7760416666667 6.82451923076923  C 12.4045138888889 6.0957532051282  11.8784722222222 5.47936698717949  11.1979166666667 4.97536057692308  C 10.90625 4.75741185897436  10.734375 4.46965144230769  10.6822916666667 4.11207932692308  C 10.6302083333333 3.75450721153846  10.7152777777778 3.43269230769231  10.9375 3.14663461538462  C 11.1527777777778 2.85376602564102  11.4444444444444 2.68349358974359  11.8125 2.63581730769231  C 12.1805555555556 2.58814102564102  12.5104166666667 2.67327724358974  12.8020833333333 2.89122596153846  C 13.8159722222222 3.63361378205128  14.6024305555556 4.55308493589743  15.1614583333333 5.64963942307692  Z M 8.9375 0.388221153846153  C 9.20138888888889 0.647035256410255  9.33333333333333 0.95352564102564  9.33333333333333 1.30769230769231  L 9.33333333333333 7.84615384615385  C 9.33333333333333 8.20032051282051  9.20138888888889 8.5068108974359  8.9375 8.765625  C 8.67361111111111 9.0244391025641  8.36111111111111 9.15384615384615  8 9.15384615384615  C 7.63888888888889 9.15384615384615  7.32638888888889 9.0244391025641  7.0625 8.765625  C 6.79861111111111 8.5068108974359  6.66666666666667 8.20032051282051  6.66666666666667 7.84615384615385  L 6.66666666666667 1.30769230769231  C 6.66666666666667 0.95352564102564  6.79861111111111 0.647035256410255  7.0625 0.388221153846153  C 7.32638888888889 0.129407051282052  7.63888888888889 0  8 0  C 8.36111111111111 0  8.67361111111111 0.129407051282052  8.9375 0.388221153846153  Z " fill-rule="nonzero" fill="#ffffff" stroke="none" transform="matrix(1 0 0 1 991 21 )" />
  </g>
</svg>