<?xml version="1.0" encoding="utf-8"?>
<svg version="1.1" xmlns:xlink="http://www.w3.org/1999/xlink" width="16px" height="17px" xmlns="http://www.w3.org/2000/svg">
  <g transform="matrix(1 0 0 1 -24 -208 )">
    <path d="M 5.71590909090909 14.0670572916667  C 5.78409090909091 14.0006510416667  5.81818181818182 13.9157986111111  5.81818181818182 13.8125  L 5.81818181818182 6.02083333333333  C 5.81818181818182 5.91753472222222  5.78409090909091 5.83268229166667  5.71590909090909 5.76627604166667  C 5.64772727272727 5.69986979166667  5.56060606060606 5.66666666666667  5.45454545454545 5.66666666666667  L 4.72727272727273 5.66666666666667  C 4.62121212121212 5.66666666666667  4.53409090909091 5.69986979166667  4.46590909090909 5.76627604166667  C 4.39772727272727 5.83268229166667  4.36363636363636 5.91753472222222  4.36363636363636 6.02083333333333  L 4.36363636363636 13.8125  C 4.36363636363636 13.9157986111111  4.39772727272727 14.0006510416667  4.46590909090909 14.0670572916667  C 4.53409090909091 14.1334635416667  4.62121212121212 14.1666666666667  4.72727272727273 14.1666666666667  L 5.45454545454545 14.1666666666667  C 5.56060606060606 14.1666666666667  5.64772727272727 14.1334635416667  5.71590909090909 14.0670572916667  Z M 8.625 14.0670572916667  C 8.69318181818182 14.0006510416667  8.72727272727273 13.9157986111111  8.72727272727273 13.8125  L 8.72727272727273 6.02083333333333  C 8.72727272727273 5.91753472222222  8.69318181818182 5.83268229166667  8.625 5.76627604166667  C 8.55681818181818 5.69986979166667  8.46969696969697 5.66666666666667  8.36363636363636 5.66666666666667  L 7.63636363636364 5.66666666666667  C 7.53030303030303 5.66666666666667  7.44318181818182 5.69986979166667  7.375 5.76627604166667  C 7.30681818181818 5.83268229166667  7.27272727272727 5.91753472222222  7.27272727272727 6.02083333333333  L 7.27272727272727 13.8125  C 7.27272727272727 13.9157986111111  7.30681818181818 14.0006510416667  7.375 14.0670572916667  C 7.44318181818182 14.1334635416667  7.53030303030303 14.1666666666667  7.63636363636364 14.1666666666667  L 8.36363636363636 14.1666666666667  C 8.46969696969697 14.1666666666667  8.55681818181818 14.1334635416667  8.625 14.0670572916667  Z M 11.5340909090909 14.0670572916667  C 11.6022727272727 14.0006510416667  11.6363636363636 13.9157986111111  11.6363636363636 13.8125  L 11.6363636363636 6.02083333333333  C 11.6363636363636 5.91753472222222  11.6022727272727 5.83268229166667  11.5340909090909 5.76627604166667  C 11.4659090909091 5.69986979166667  11.3787878787879 5.66666666666667  11.2727272727273 5.66666666666667  L 10.5454545454545 5.66666666666667  C 10.4393939393939 5.66666666666667  10.3522727272727 5.69986979166667  10.2840909090909 5.76627604166667  C 10.2159090909091 5.83268229166667  10.1818181818182 5.91753472222222  10.1818181818182 6.02083333333333  L 10.1818181818182 13.8125  C 10.1818181818182 13.9157986111111  10.2159090909091 14.0006510416667  10.2840909090909 14.0670572916667  C 10.3522727272727 14.1334635416667  10.4393939393939 14.1666666666667  10.5454545454545 14.1666666666667  L 11.2727272727273 14.1666666666667  C 11.3787878787879 14.1666666666667  11.4659090909091 14.1334635416667  11.5340909090909 14.0670572916667  Z M 6.01136363636364 1.53841145833333  L 5.45454545454545 2.83333333333333  L 10.5454545454545 2.83333333333333  L 10 1.53841145833333  C 9.9469696969697 1.47200520833333  9.88257575757576 1.43142361111111  9.80681818181818 1.41666666666667  L 6.20454545454545 1.41666666666667  C 6.12878787878788 1.43142361111111  6.06439393939394 1.47200520833333  6.01136363636364 1.53841145833333  Z M 15.8977272727273 2.93294270833333  C 15.9659090909091 2.99934895833333  16 3.08420138888889  16 3.1875  L 16 3.89583333333333  C 16 3.99913194444444  15.9659090909091 4.083984375  15.8977272727273 4.150390625  C 15.8295454545455 4.216796875  15.7424242424242 4.25  15.6363636363636 4.25  L 14.5454545454545 4.25  L 14.5454545454545 14.7421875  C 14.5454545454545 15.3546006944444  14.3674242424242 15.8840060763889  14.0113636363636 16.3304036458333  C 13.655303030303 16.7768012152778  13.2272727272727 17  12.7272727272727 17  L 3.27272727272727 17  C 2.77272727272727 17  2.34469696969697 16.7841796875  1.98863636363636 16.3525390625  C 1.63257575757576 15.9208984375  1.45454545454545 15.3988715277778  1.45454545454545 14.7864583333333  L 1.45454545454545 4.25  L 0.363636363636364 4.25  C 0.257575757575758 4.25  0.170454545454545 4.216796875  0.102272727272727 4.150390625  C 0.0340909090909091 4.083984375  0 3.99913194444444  0 3.89583333333333  L 0 3.1875  C 0 3.08420138888889  0.0340909090909091 2.99934895833333  0.102272727272727 2.93294270833333  C 0.170454545454545 2.86653645833333  0.257575757575758 2.83333333333333  0.363636363636364 2.83333333333333  L 3.875 2.83333333333333  L 4.67045454545455 0.985026041666667  C 4.78409090909091 0.712022569444443  4.98863636363636 0.479600694444443  5.28409090909091 0.287760416666667  C 5.57954545454546 0.0959201388888878  5.87878787878788 0  6.18181818181818 0  L 9.81818181818182 0  C 10.1212121212121 0  10.4204545454545 0.0959201388888878  10.7159090909091 0.287760416666667  C 11.0113636363636 0.479600694444443  11.2159090909091 0.712022569444443  11.3295454545455 0.985026041666667  L 12.125 2.83333333333333  L 15.6363636363636 2.83333333333333  C 15.7424242424242 2.83333333333333  15.8295454545455 2.86653645833333  15.8977272727273 2.93294270833333  Z " fill-rule="nonzero" fill="#cccccc" stroke="none" transform="matrix(1 0 0 1 24 208 )" />
  </g>
</svg>