<?xml version="1.0" encoding="utf-8"?>
<svg version="1.1" xmlns:xlink="http://www.w3.org/1999/xlink" width="13px" height="13px" xmlns="http://www.w3.org/2000/svg">
  <g transform="matrix(1 0 0 1 -27 -108 )">
    <path d="M 2.32747395833333 7.42252604166667  C 2.22026909722222 7.31532118055556  2.16666666666667 7.18836805555556  2.16666666666667 7.04166666666667  L 2.16666666666667 5.95833333333333  C 2.16666666666667 5.81163194444444  2.22026909722222 5.68467881944444  2.32747395833333 5.57747395833333  C 2.43467881944444 5.47026909722222  2.56163194444444 5.41666666666667  2.70833333333333 5.41666666666667  L 5.41666666666667 5.41666666666667  L 5.41666666666667 2.70833333333333  C 5.41666666666667 2.56163194444444  5.47026909722222 2.43467881944444  5.57747395833333 2.32747395833333  C 5.68467881944444 2.22026909722222  5.81163194444444 2.16666666666667  5.95833333333333 2.16666666666667  L 7.04166666666667 2.16666666666667  C 7.18836805555556 2.16666666666667  7.31532118055556 2.22026909722222  7.42252604166667 2.32747395833333  C 7.52973090277778 2.43467881944444  7.58333333333333 2.56163194444444  7.58333333333333 2.70833333333333  L 7.58333333333333 5.41666666666667  L 10.2916666666667 5.41666666666667  C 10.4383680555556 5.41666666666667  10.5653211805556 5.47026909722222  10.6725260416667 5.57747395833333  C 10.7797309027778 5.68467881944444  10.8333333333333 5.81163194444444  10.8333333333333 5.95833333333333  L 10.8333333333333 7.04166666666667  C 10.8333333333333 7.18836805555556  10.7797309027778 7.31532118055556  10.6725260416667 7.42252604166667  C 10.5653211805556 7.52973090277778  10.4383680555556 7.58333333333333  10.2916666666667 7.58333333333333  L 7.58333333333333 7.58333333333333  L 7.58333333333333 10.2916666666667  C 7.58333333333333 10.4383680555556  7.52973090277778 10.5653211805556  7.42252604166667 10.6725260416667  C 7.31532118055556 10.7797309027778  7.18836805555556 10.8333333333333  7.04166666666667 10.8333333333333  L 5.95833333333333 10.8333333333333  C 5.81163194444444 10.8333333333333  5.68467881944444 10.7797309027778  5.57747395833333 10.6725260416667  C 5.47026909722222 10.5653211805556  5.41666666666667 10.4383680555556  5.41666666666667 10.2916666666667  L 5.41666666666667 7.58333333333333  L 2.70833333333333 7.58333333333333  C 2.56163194444444 7.58333333333333  2.43467881944444 7.52973090277778  2.32747395833333 7.42252604166667  Z M 0.715169270833334 0.715169270833334  C 0.238389756944445 1.19194878472222  0 1.76605902777778  0 2.4375  L 0 10.5625  C 0 11.2339409722222  0.238389756944445 11.8080512152778  0.715169270833334 12.2848307291667  C 1.19194878472222 12.7616102430556  1.76605902777778 13  2.4375 13  L 10.5625 13  C 11.2339409722222 13  11.8080512152778 12.7616102430556  12.2848307291667 12.2848307291667  C 12.7616102430556 11.8080512152778  13 11.2339409722222  13 10.5625  L 13 2.4375  C 13 1.76605902777778  12.7616102430556 1.19194878472222  12.2848307291667 0.715169270833334  C 11.8080512152778 0.238389756944444  11.2339409722222 0  10.5625 0  L 2.4375 0  C 1.76605902777778 0  1.19194878472222 0.238389756944444  0.715169270833334 0.715169270833334  Z " fill-rule="nonzero" fill="#cccccc" stroke="none" transform="matrix(1 0 0 1 27 108 )" />
  </g>
</svg>