<?xml version="1.0" encoding="utf-8"?>
<svg version="1.1" xmlns:xlink="http://www.w3.org/1999/xlink" width="17px" height="17px" xmlns="http://www.w3.org/2000/svg">
  <g transform="matrix(1 0 0 1 -603 -477 )">
    <path d="M 14.1666666666667 4.85714285714286  C 14.1666666666667 5.78683035714286  13.8752170138889 6.6469494047619  13.2923177083333 7.4375  C 13.6391059027778 7.52604166666667  13.9692925347222 7.64620535714286  14.2828776041667 7.79799107142857  C 14.5964626736111 7.94977678571429  14.9248046875 8.18061755952381  15.2679036458333 8.49051339285714  C 15.6110026041667 8.80040922619048  15.904296875 9.16564360119048  16.1477864583333 9.58621651785714  C 16.3912760416667 10.0067894345238  16.5941840277778 10.5506882440476  16.7565104166667 11.2179129464286  C 16.9188368055556 11.8851376488095  17 12.6329985119048  17 13.4614955357143  C 17 14.4354538690476  16.6310763888889 15.2686941964286  15.8932291666667 15.9612165178571  C 15.1553819444444 16.6537388392857  14.2662760416667 17  13.2259114583333 17  L 3.77408854166667 17  C 2.73372395833333 17  1.84461805555556 16.6537388392857  1.10677083333333 15.9612165178571  C 0.368923611111111 15.2686941964286  0 14.4354538690476  0 13.4614955357143  C 0 12.6329985119048  0.0811631944444444 11.8851376488095  0.243489583333333 11.2179129464286  C 0.405815972222222 10.5506882440476  0.608723958333333 10.0067894345238  0.852213541666667 9.58621651785714  C 1.095703125 9.16564360119048  1.38899739583333 8.80040922619048  1.73209635416667 8.49051339285714  C 2.0751953125 8.18061755952381  2.40353732638889 7.94977678571429  2.71712239583333 7.79799107142857  C 3.03070746527778 7.64620535714286  3.36089409722222 7.52604166666667  3.70768229166667 7.4375  C 3.12478298611111 6.6469494047619  2.83333333333333 5.78683035714286  2.83333333333333 4.85714285714286  C 2.83333333333333 4.19940476190476  2.98274739583333 3.57170758928571  3.28157552083333 2.97405133928571  C 3.58040364583333 2.37639508928571  3.984375 1.859375  4.49348958333333 1.42299107142857  C 5.00260416666667 0.986607142857143  5.60579427083333 0.640345982142857  6.30305989583333 0.384207589285714  C 7.00032552083333 0.128069196428571  7.73263888888889 0  8.5 0  C 9.26736111111111 0  9.99967447916667 0.128069196428571  10.6969401041667 0.384207589285714  C 11.3942057291667 0.640345982142857  11.9973958333333 0.986607142857143  12.5065104166667 1.42299107142857  C 13.015625 1.859375  13.4195963541667 2.37639508928571  13.7184244791667 2.97405133928571  C 14.0172526041667 3.57170758928571  14.1666666666667 4.19940476190476  14.1666666666667 4.85714285714286  Z M 11.5048828125 2.28152901785714  C 10.6748046875 1.57003348214286  9.67317708333333 1.21428571428571  8.5 1.21428571428571  C 7.32682291666667 1.21428571428571  6.3251953125 1.57003348214286  5.4951171875 2.28152901785714  C 4.6650390625 2.99302455357143  4.25 3.8515625  4.25 4.85714285714286  C 4.25 5.86272321428571  4.6650390625 6.72126116071429  5.4951171875 7.43275669642857  C 6.3251953125 8.14425223214286  7.32682291666667 8.5  8.5 8.5  C 9.67317708333333 8.5  10.6748046875 8.14425223214286  11.5048828125 7.43275669642857  C 12.3349609375 6.72126116071429  12.75 5.86272321428571  12.75 4.85714285714286  C 12.75 3.8515625  12.3349609375 2.99302455357143  11.5048828125 2.28152901785714  Z M 3.77408854166667 15.7857142857143  L 13.2259114583333 15.7857142857143  C 13.8752170138889 15.7857142857143  14.4304470486111 15.5596168154762  14.8916015625 15.107421875  C 15.3527560763889 14.6552269345238  15.5833333333333 14.1065848214286  15.5833333333333 13.4614955357143  C 15.5833333333333 11.949962797619  15.2937282986111 10.7578125  14.7145182291667 9.88504464285714  C 14.1353081597222 9.01227678571429  13.3033854166667 8.55375744047619  12.21875 8.50948660714286  C 11.1488715277778 9.31268601190476  9.90928819444444 9.71428571428571  8.5 9.71428571428571  C 7.09071180555556 9.71428571428571  5.85112847222222 9.31268601190476  4.78125 8.50948660714286  C 3.69661458333333 8.55375744047619  2.86469184027778 9.01227678571429  2.28548177083333 9.88504464285714  C 1.70627170138889 10.7578125  1.41666666666667 11.949962797619  1.41666666666667 13.4614955357143  C 1.41666666666667 14.1065848214286  1.64724392361111 14.6552269345238  2.1083984375 15.107421875  C 2.56955295138889 15.5596168154762  3.12478298611111 15.7857142857143  3.77408854166667 15.7857142857143  Z " fill-rule="nonzero" fill="#000000" stroke="none" transform="matrix(1 0 0 1 603 477 )" />
  </g>
</svg>