<?xml version="1.0" encoding="utf-8"?>
<svg version="1.1" xmlns:xlink="http://www.w3.org/1999/xlink" width="18px" height="14px" xmlns="http://www.w3.org/2000/svg">
  <g transform="matrix(1 0 0 1 -602 -526 )">
    <path d="M 8.29946524064171 4.57286432160804  C 8.69875222816399 4.24455611390285  8.89839572192513 3.84589614740368  8.89839572192513 3.37688442211055  C 8.89839572192513 2.90787269681742  8.69875222816399 2.50921273031826  8.29946524064171 2.18090452261307  C 7.90017825311943 1.85259631490787  7.41532976827095 1.68844221105528  6.84491978609626 1.68844221105528  C 6.27450980392157 1.68844221105528  5.78966131907308 1.85259631490787  5.3903743315508 2.18090452261307  C 4.99108734402852 2.50921273031826  4.79144385026738 2.90787269681742  4.79144385026738 3.37688442211055  C 4.79144385026738 3.62311557788945  4.85918003565062 3.86641541038526  4.99465240641711 4.10678391959799  C 4.70231729055259 3.99539363484087  4.40641711229947 3.93969849246231  4.10695187165775 3.93969849246231  C 3.53654188948307 3.93969849246231  3.05169340463458 4.10385259631491  2.6524064171123 4.4321608040201  C 2.25311942959002 4.76046901172529  2.05347593582888 5.15912897822446  2.05347593582888 5.62814070351759  C 2.05347593582888 6.09715242881072  2.25311942959002 6.49581239530988  2.6524064171123 6.82412060301507  C 3.05169340463458 7.15242881072027  3.53654188948307 7.31658291457286  4.10695187165775 7.31658291457286  C 4.67736185383244 7.31658291457286  5.16221033868093 7.15242881072027  5.56149732620321 6.82412060301507  C 5.96078431372549 6.49581239530988  6.16042780748663 6.09715242881072  6.16042780748663 5.62814070351759  C 6.16042780748663 5.38190954773869  6.09269162210339 5.13860971524288  5.9572192513369 4.89824120603015  C 6.24955436720143 5.00963149078727  6.54545454545455 5.06532663316583  6.84491978609626 5.06532663316583  C 7.41532976827095 5.06532663316583  7.90017825311943 4.90117252931323  8.29946524064171 4.57286432160804  Z M 17.6951871657754 9.2072864321608  C 17.8983957219251 9.40075376884422  18 9.52093802345059  18 9.5678391959799  C 18 9.66750418760469  17.825311942959 9.86097152428811  17.475935828877 10.1482412060301  C 17.126559714795 10.4355108877722  16.891265597148 10.5791457286432  16.7700534759358 10.5791457286432  C 16.7058823529412 10.5791457286432  16.6042780748663 10.5322445561139  16.4652406417112 10.4384422110553  C 16.3262032085562 10.3446398659966  16.1960784313726 10.2479061976549  16.0748663101604 10.1482412060301  C 15.9536541889483 10.0485762144054  15.8163992869875 9.93132328308208  15.6631016042781 9.7964824120603  C 15.5098039215686 9.66164154103853  15.4224598930481 9.58542713567839  15.4010695187166 9.5678391959799  L 14.3743315508021 10.4120603015075  L 16.7272727272727 12.3467336683417  C 16.9269162210339 12.5108877721943  17.0267379679144 12.7102177554439  17.0267379679144 12.9447236180905  C 17.0267379679144 13.1909547738693  16.8877005347594 13.428391959799  16.6096256684492 13.6570351758794  C 16.331550802139 13.8856783919598  16.0427807486631 14  15.7433155080214 14  C 15.458110516934 14  15.2156862745098 13.9179229480737  15.0160427807487 13.7537688442211  L 7.83957219251337 7.85301507537688  C 6.58467023172906 8.62102177554439  5.28342245989305 9.00502512562814  3.93582887700535 9.00502512562814  C 2.77361853832442 9.00502512562814  1.8270944741533 8.70456448911223  1.09625668449198 8.1036432160804  C 0.36541889483066 7.50272194304858  0 6.72445561139028  0 5.76884422110553  C 0 4.83082077051926  0.338680926916221 3.91331658291457  1.01604278074866 3.01633165829146  C 1.69340463458111 2.11934673366834  2.57754010695187 1.39237855946399  3.66844919786096 0.835427135678393  C 4.75935828877005 0.278475711892797  5.87522281639929 0  7.01604278074866 0  C 8.17825311942959 0  9.12477718360072 0.300460636515912  9.85561497326203 0.901381909547738  C 10.5864527629234 1.50230318257956  10.951871657754 2.28056951423785  10.951871657754 3.23618090452261  C 10.951871657754 4.34422110552764  10.4848484848485 5.4141541038526  9.55080213903743 6.44597989949749  L 13.3475935828877 9.5678391959799  L 14.3743315508021 8.72361809045226  C 14.3529411764706 8.70603015075377  14.2602495543672 8.63421273031826  14.096256684492 8.50816582914573  C 13.9322638146168 8.3821189279732  13.7896613190731 8.26926298157454  13.668449197861 8.16959798994975  C 13.5472370766488 8.06993299832496  13.4295900178253 7.96293969849246  13.3155080213904 7.84861809045226  C 13.2014260249554 7.73429648241206  13.144385026738 7.65075376884422  13.144385026738 7.59798994974874  C 13.144385026738 7.49832495812395  13.319073083779 7.30485762144053  13.668449197861 7.01758793969849  C 14.017825311943 6.73031825795645  14.25311942959 6.58668341708543  14.3743315508021 6.58668341708543  C 14.4670231729055 6.58668341708543  14.5490196078431 6.61599664991625  14.620320855615 6.67462311557789  C 14.6631016042781 6.70979899497488  14.8270944741533 6.84024288107203  15.1122994652406 7.06595477386935  C 15.397504456328 7.29166666666667  15.6898395721925 7.52470686767169  15.9893048128342 7.76507537688442  C 16.2887700534759 8.00544388609715  16.5971479500891 8.25753768844221  16.9144385026738 8.5213567839196  C 17.2317290552585 8.78517587939698  17.4919786096257 9.01381909547739  17.6951871657754 9.2072864321608  Z " fill-rule="nonzero" fill="#000000" stroke="none" transform="matrix(1 0 0 1 602 526 )" />
  </g>
</svg>