<?xml version="1.0" encoding="utf-8"?>
<svg version="1.1" xmlns:xlink="http://www.w3.org/1999/xlink" width="15px" height="15px" viewBox="625 614  15 15" xmlns="http://www.w3.org/2000/svg">
  <path d="M 632.5 614  C 636.7 614  640 617.3  640 621.5  C 640 625.7  636.7 629  632.5 629  C 628.3 629  625 625.7  625 621.5  C 625 617.3  628.3 614  632.5 614  Z " fill-rule="nonzero" fill="#ffffff" stroke="none" />
  <path d="M 632.5 614.5  C 636.42 614.5  639.5 617.58  639.5 621.5  C 639.5 625.42  636.42 628.5  632.5 628.5  C 628.58 628.5  625.5 625.42  625.5 621.5  C 625.5 617.58  628.58 614.5  632.5 614.5  Z " stroke-width="1" stroke="#797979" fill="none" />
  <path d="M 632.5 625.25  C 630.4 625.25  628.75 623.6  628.75 621.5  C 628.75 619.4  630.4 617.75  632.5 617.75  C 634.6 617.75  636.25 619.4  636.25 621.5  C 636.25 623.6  634.6 625.25  632.5 625.25  " fill-rule="nonzero" fill="#797979" stroke="none" />
</svg>