<?xml version="1.0" encoding="utf-8"?>
<svg version="1.1" xmlns:xlink="http://www.w3.org/1999/xlink" width="33px" height="20px" xmlns="http://www.w3.org/2000/svg">
  <g transform="matrix(1 0 0 1 -945 -21 )">
    <path d="M 13.4272959183673 18.2890625  C 13.4132653061224 18.3463541666667  13.4272959183673 18.4166666666667  13.469387755102 18.5  C 13.469387755102 18.5416666666667  13.4764030612245 18.6458333333333  13.4904336734694 18.8125  C 13.5044642857143 18.9791666666667  13.5079719387755 19.1171875  13.5009566326531 19.2265625  C 13.4939413265306 19.3359375  13.4728954081633 19.4583333333333  13.437818877551 19.59375  C 13.4027423469388 19.7291666666667  13.3325892857143 19.8307291666667  13.2273596938776 19.8984375  C 13.1221301020408 19.9661458333333  12.9783163265306 20  12.7959183673469 20  L 6.06122448979592 20  C 4.39158163265306 20  2.96396683673469 19.5598958333333  1.77838010204082 18.6796875  C 0.592793367346939 17.7994791666667  0 16.7395833333333  0 15.5  L 0 4.5  C 0 3.26041666666666  0.592793367346939 2.20052083333333  1.77838010204082 1.3203125  C 2.96396683673469 0.440104166666664  4.39158163265306 0  6.06122448979592 0  L 12.7959183673469 0  C 12.9783163265306 0  13.1361607142857 0.0494791666666639  13.2694515306122 0.1484375  C 13.4027423469388 0.247395833333333  13.469387755102 0.364583333333333  13.469387755102 0.5  C 13.469387755102 0.541666666666665  13.4764030612245 0.645833333333332  13.4904336734694 0.8125  C 13.5044642857143 0.979166666666664  13.5079719387755 1.1171875  13.5009566326531 1.2265625  C 13.4939413265306 1.3359375  13.4728954081633 1.45833333333333  13.437818877551 1.59375  C 13.4027423469388 1.72916666666666  13.3325892857143 1.83072916666666  13.2273596938776 1.8984375  C 13.1221301020408 1.96614583333333  12.9783163265306 2  12.7959183673469 2  L 6.06122448979592 2  C 5.13520408163265 2  4.34247448979592 2.24479166666666  3.68303571428571 2.734375  C 3.02359693877551 3.22395833333333  2.69387755102041 3.8125  3 4.5  L 3 15.5  C 2.69387755102041 16.1875  3.02359693877551 16.7760416666667  3.68303571428571 17.265625  C 4.34247448979592 17.7552083333333  5.13520408163265 18  6.06122448979592 18  L 12.1224489795918 18  L 12.3539540816327 18  L 12.6275510204082 18  C 12.6275510204082 18  12.7082270408163 18.0052083333333  12.8695790816327 18.015625  C 13.030931122449 18.0260416666667  13.1116071428571 18.0416666666667  13.1116071428571 18.0625  C 13.1116071428571 18.0833333333333  13.1677295918367 18.1119791666667  13.2799744897959 18.1484375  C 13.3922193877551 18.1848958333333  13.4413265306122 18.2317708333333  13.4272959183673 18.2890625  Z M 32.6001275510204 9.296875  C 32.8667091836735 9.49479166666667  33 9.72916666666667  33 10  C 33 10.2708333333333  32.8667091836735 10.5052083333333  32.6001275510204 10.703125  L 21.1511479591837 19.203125  C 20.8845663265306 19.4010416666667  20.5688775510204 19.5  20.2040816326531 19.5  C 19.8392857142857 19.5  19.5235969387755 19.4010416666667  19.2570153061224 19.203125  C 18.9904336734694 19.0052083333333  18.8571428571429 18.7708333333333  18.8571428571429 18.5  L 18.8571428571429 14  L 9.42857142857143 14  C 9.06377551020408 14  8.74808673469388 13.9010416666667  8.48150510204082 13.703125  C 8.21492346938775 13.5052083333333  8.08163265306122 13.2708333333333  8.08163265306122 13  L 8.08163265306122 7  C 8.08163265306122 6.72916666666666  8.21492346938775 6.49479166666666  8.48150510204082 6.296875  C 8.74808673469388 6.09895833333333  9.06377551020408 6  9.42857142857143 6  L 18.8571428571429 6  L 18.8571428571429 1.5  C 18.8571428571429 1.22916666666666  18.9904336734694 0.994791666666663  19.2570153061224 0.796874999999999  C 19.5235969387755 0.598958333333333  19.8392857142857 0.5  20.2040816326531 0.5  C 20.5688775510204 0.5  20.8845663265306 0.598958333333333  21.1511479591837 0.796874999999999  L 32.6001275510204 9.296875  Z " fill-rule="nonzero" fill="#edf3f8" stroke="none" transform="matrix(1 0 0 1 945 21 )" />
  </g>
</svg>