<?xml version="1.0" encoding="utf-8"?>
<svg version="1.1" xmlns:xlink="http://www.w3.org/1999/xlink" width="32px" height="19px" xmlns="http://www.w3.org/2000/svg">
  <g transform="matrix(1 0 0 1 -18 -22 )">
    <path d="M 15.859375 10.9534505208333  C 15.953125 11.3946397569444  16 11.8791232638889  16 12.4069010416667  C 16 12.9346788194444  15.8072916666667 13.3738064236111  15.421875 13.7242838541667  C 15.0364583333333 14.0747612847222  14.5625 14.25  14 14.25  L 6 14.25  C 5.4375 14.25  4.96354166666667 14.0747612847222  4.578125 13.7242838541667  C 4.19270833333333 13.3738064236111  4 12.9346788194444  4 12.4069010416667  C 4 11.8791232638889  4.046875 11.3946397569444  4.140625 10.9534505208333  C 4.234375 10.5122612847222  4.38802083333333 10.0875651041667  4.6015625 9.67936197916667  C 4.81510416666667 9.27115885416667  5.13020833333333 8.94954427083333  5.546875 8.71451822916667  C 5.96354166666667 8.4794921875  6.46875 8.36197916666667  7.0625 8.36197916666667  C 7.125 8.39496527777778  7.28125 8.46918402777778  7.53125 8.58463541666667  C 7.78125 8.70008680555555  7.9765625 8.78873697916667  8.1171875 8.8505859375  C 8.2578125 8.91243489583333  8.44270833333333 8.98459201388889  8.671875 9.06705729166667  C 8.90104166666667 9.14952256944444  9.125 9.20930989583333  9.34375 9.24641927083333  C 9.5625 9.28352864583333  9.78125 9.30208333333333  10 9.30208333333333  C 10.21875 9.30208333333333  10.4375 9.28352864583333  10.65625 9.24641927083333  C 10.875 9.20930989583333  11.0989583333333 9.14952256944444  11.328125 9.06705729166667  C 11.5572916666667 8.98459201388889  11.7421875 8.91243489583333  11.8828125 8.8505859375  C 12.0234375 8.78873697916667  12.21875 8.70008680555555  12.46875 8.58463541666667  C 12.71875 8.46918402777778  12.875 8.39496527777778  12.9375 8.36197916666667  C 13.53125 8.36197916666667  14.0364583333333 8.4794921875  14.453125 8.71451822916667  C 14.8697916666667 8.94954427083333  15.1848958333333 9.27115885416667  15.3984375 9.67936197916667  C 15.6119791666667 10.0875651041667  15.765625 10.5122612847222  15.859375 10.9534505208333  Z M 12.5078125 3.9892578125  C 13.2005208333333 4.53765190972222  13.546875 5.19943576388889  13.546875 5.974609375  C 13.546875 6.74978298611111  13.2005208333333 7.41156684027778  12.5078125 7.9599609375  C 11.8151041666667 8.50835503472222  10.9791666666667 8.78255208333333  10 8.78255208333333  C 9.02083333333333 8.78255208333333  8.18489583333333 8.50835503472222  7.4921875 7.9599609375  C 6.79947916666667 7.41156684027778  6.453125 6.74978298611111  6.453125 5.974609375  C 6.453125 5.19943576388889  6.79947916666667 4.53765190972222  7.4921875 3.9892578125  C 8.18489583333333 3.44086371527778  9.02083333333333 3.16666666666667  10 3.16666666666667  C 10.9791666666667 3.16666666666667  11.8151041666667 3.44086371527778  12.5078125 3.9892578125  Z M 27.859375 11.1946614583333  C 27.953125 11.2688802083333  28 11.3637152777778  28 11.4791666666667  L 28 12.2708333333333  C 28 12.3862847222222  27.953125 12.4811197916667  27.859375 12.5553385416667  C 27.765625 12.6295572916667  27.6458333333333 12.6666666666667  27.5 12.6666666666667  L 18.5 12.6666666666667  C 18.3541666666667 12.6666666666667  18.234375 12.6295572916667  18.140625 12.5553385416667  C 18.046875 12.4811197916667  18 12.3862847222222  18 12.2708333333333  L 18 11.4791666666667  C 18 11.3637152777778  18.046875 11.2688802083333  18.140625 11.1946614583333  C 18.234375 11.1204427083333  18.3541666666667 11.0833333333333  18.5 11.0833333333333  L 27.5 11.0833333333333  C 27.6458333333333 11.0833333333333  27.765625 11.1204427083333  27.859375 11.1946614583333  Z M 27.8359375 8.04654947916667  C 27.9453125 8.13313802083333  28 8.23828125  28 8.36197916666667  L 28 9.0546875  C 28 9.17838541666667  27.9453125 9.28352864583333  27.8359375 9.3701171875  C 27.7265625 9.45670572916667  27.59375 9.5  27.4375 9.5  L 18.5625 9.5  C 18.40625 9.5  18.2734375 9.45670572916667  18.1640625 9.3701171875  C 18.0546875 9.28352864583333  18 9.17838541666667  18 9.0546875  L 18 8.36197916666667  C 18 8.23828125  18.0546875 8.13313802083333  18.1640625 8.04654947916667  C 18.2734375 7.9599609375  18.40625 7.91666666666667  18.5625 7.91666666666667  L 27.4375 7.91666666666667  C 27.59375 7.91666666666667  27.7265625 7.9599609375  27.8359375 8.04654947916667  Z M 27.859375 4.861328125  C 27.953125 4.935546875  28 5.03038194444444  28 5.14583333333333  L 28 5.9375  C 28 6.05295138888889  27.953125 6.14778645833333  27.859375 6.22200520833333  C 27.765625 6.29622395833333  27.6458333333333 6.33333333333333  27.5 6.33333333333333  L 18.5 6.33333333333333  C 18.3541666666667 6.33333333333333  18.234375 6.29622395833333  18.140625 6.22200520833333  C 18.046875 6.14778645833333  18 6.05295138888889  18 5.9375  L 18 5.14583333333333  C 18 5.03038194444444  18.046875 4.935546875  18.140625 4.861328125  C 18.234375 4.787109375  18.3541666666667 4.75  18.5 4.75  L 27.5 4.75  C 27.6458333333333 4.75  27.765625 4.787109375  27.859375 4.861328125  Z M 29.8515625 17.2991536458333  C 29.9505208333333 17.2208116319444  30 17.1280381944444  30 17.0208333333333  L 30 1.97916666666667  C 30 1.87196180555555  29.9505208333333 1.77918836805555  29.8515625 1.70084635416667  C 29.7526041666667 1.62250434027778  29.6354166666667 1.58333333333333  29.5 1.58333333333333  L 2.5 1.58333333333333  C 2.36458333333333 1.58333333333333  2.24739583333333 1.62250434027778  2.1484375 1.70084635416667  C 2.04947916666667 1.77918836805555  2 1.87196180555555  2 1.97916666666667  L 2 17.0208333333333  C 2 17.1280381944444  2.04947916666667 17.2208116319444  2.1484375 17.2991536458333  C 2.24739583333333 17.3774956597222  2.36458333333333 17.4166666666667  2.5 17.4166666666667  L 8 17.4166666666667  L 8 16.2291666666667  C 8 16.1137152777778  8.046875 16.0188802083333  8.140625 15.9446614583333  C 8.234375 15.8704427083333  8.35416666666667 15.8333333333333  8.5 15.8333333333333  L 9.5 15.8333333333333  C 9.64583333333333 15.8333333333333  9.765625 15.8704427083333  9.859375 15.9446614583333  C 9.953125 16.0188802083333  10 16.1137152777778  10 16.2291666666667  L 10 17.4166666666667  L 22 17.4166666666667  L 22 16.2291666666667  C 22 16.1137152777778  22.046875 16.0188802083333  22.140625 15.9446614583333  C 22.234375 15.8704427083333  22.3541666666667 15.8333333333333  22.5 15.8333333333333  L 23.5 15.8333333333333  C 23.6458333333333 15.8333333333333  23.765625 15.8704427083333  23.859375 15.9446614583333  C 23.953125 16.0188802083333  24 16.1137152777778  24 16.2291666666667  L 24 17.4166666666667  L 29.5 17.4166666666667  C 29.6354166666667 17.4166666666667  29.7526041666667 17.3774956597222  29.8515625 17.2991536458333  Z M 31.265625 0.581380208333334  C 31.7552083333333 0.968967013888888  32 1.43489583333333  32 1.97916666666667  L 32 17.0208333333333  C 32 17.5651041666667  31.7552083333333 18.0310329861111  31.265625 18.4186197916667  C 30.7760416666667 18.8062065972222  30.1875 19  29.5 19  L 2.5 19  C 1.8125 19  1.22395833333333 18.8062065972222  0.734375 18.4186197916667  C 0.244791666666667 18.0310329861111  0 17.5651041666667  0 17.0208333333333  L 0 1.97916666666667  C 0 1.43489583333333  0.244791666666667 0.968967013888888  0.734375 0.581380208333334  C 1.22395833333333 0.193793402777776  1.8125 0  2.5 0  L 29.5 0  C 30.1875 0  30.7760416666667 0.193793402777776  31.265625 0.581380208333334  Z " fill-rule="nonzero" fill="#edf3f8" stroke="none" transform="matrix(1 0 0 1 18 22 )" />
  </g>
</svg>