<?xml version="1.0" encoding="utf-8"?>
<svg version="1.1" xmlns:xlink="http://www.w3.org/1999/xlink" width="18px" height="15px" xmlns="http://www.w3.org/2000/svg">
  <g transform="matrix(1 0 0 1 -39 -111 )">
    <path d="M 17.77734375 12.22265625  C 17.92578125 12.37109375  18 12.546875  18 12.75  L 18 14.25  C 18 14.453125  17.92578125 14.62890625  17.77734375 14.77734375  C 17.62890625 14.92578125  17.453125 15  17.25 15  L 0.749999999999998 15  C 0.546875000000002 15  0.371093750000002 14.92578125  0.222656249999998 14.77734375  C 0.0742187499999994 14.62890625  0 14.453125  0 14.25  L 0 12.75  C 0 12.546875  0.0742187499999994 12.37109375  0.222656249999998 12.22265625  C 0.371093750000002 12.07421875  0.546875000000002 12  0.749999999999998 12  L 17.25 12  C 17.453125 12  17.62890625 12.07421875  17.77734375 12.22265625  Z M 17.77734375 6.22265625  C 17.92578125 6.37109375  18 6.546875  18 6.75  L 18 8.25  C 18 8.453125  17.92578125 8.62890625  17.77734375 8.77734375  C 17.62890625 8.92578125  17.453125 9  17.25 9  L 0.749999999999998 9  C 0.546875000000002 9  0.371093750000002 8.92578125  0.222656249999998 8.77734375  C 0.0742187499999994 8.62890625  0 8.453125  0 8.25  L 0 6.75  C 0 6.546875  0.0742187499999994 6.37109375  0.222656249999998 6.22265625  C 0.371093750000002 6.07421875  0.546875000000002 6  0.749999999999998 6  L 7.56 6  L 17.25 6  C 17.453125 6  17.62890625 6.07421875  17.77734375 6.22265625  Z M 17.77734375 0.222656249999998  C 17.92578125 0.37109375  18 0.546875  18 0.749999999999998  L 18 2.25  C 18 2.453125  17.92578125 2.62890625  17.77734375 2.77734375  C 17.62890625 2.92578125  17.453125 3  17.25 3  L 0.749999999999998 3  C 0.546875000000002 3  0.371093750000002 2.92578125  0.222656249999998 2.77734375  C 0.0742187499999994 2.62890625  0 2.453125  0 2.25  L 0 0.749999999999998  C 0 0.546875  0.0742187499999994 0.37109375  0.222656249999998 0.222656249999998  C 0.371093750000002 0.0742187499999959  0.546875000000002 0  0.749999999999998 0  L 17.25 0  C 17.453125 0  17.62890625 0.0742187499999959  17.77734375 0.222656249999998  Z " fill-rule="nonzero" fill="#edf3f8" stroke="none" transform="matrix(1 0 0 1 39 111 )" />
  </g>
</svg>